<svg id="visual" viewBox="0 0 960 100" width="960" height="100" xmlns="http://www.w3.org/2000/svg" xmlns:xlink="http://www.w3.org/1999/xlink" version="1.1"><rect x="0" y="0" width="960" height="100" fill="#121212"></rect><path d="M0 42L22.8 41.5C45.7 41 91.3 40 137 39.2C182.7 38.3 228.3 37.7 274 36.7C319.7 35.7 365.3 34.3 411.2 35C457 35.7 503 38.3 548.8 38.8C594.7 39.3 640.3 37.7 686 38C731.7 38.3 777.3 40.7 823 41.3C868.7 42 914.3 41 937.2 40.5L960 40L960 0L937.2 0C914.3 0 868.7 0 823 0C777.3 0 731.7 0 686 0C640.3 0 594.7 0 548.8 0C503 0 457 0 411.2 0C365.3 0 319.7 0 274 0C228.3 0 182.7 0 137 0C91.3 0 45.7 0 22.8 0L0 0Z" fill="#121212"></path><path d="M0 32L22.8 32C45.7 32 91.3 32 137 31.5C182.7 31 228.3 30 274 29.2C319.7 28.3 365.3 27.7 411.2 27.8C457 28 503 29 548.8 30.2C594.7 31.3 640.3 32.7 686 32C731.7 31.3 777.3 28.7 823 27.5C868.7 26.3 914.3 26.7 937.2 26.8L960 27L960 0L937.2 0C914.3 0 868.7 0 823 0C777.3 0 731.7 0 686 0C640.3 0 594.7 0 548.8 0C503 0 457 0 411.2 0C365.3 0 319.7 0 274 0C228.3 0 182.7 0 137 0C91.3 0 45.7 0 22.8 0L0 0Z" fill="#393939"></path><path d="M0 20L22.8 21C45.7 22 91.3 24 137 24.3C182.7 24.7 228.3 23.3 274 22.8C319.7 22.3 365.3 22.7 411.2 23.3C457 24 503 25 548.8 25.7C594.7 26.3 640.3 26.7 686 25.8C731.7 25 777.3 23 823 23.2C868.7 23.3 914.3 25.7 937.2 26.8L960 28L960 0L937.2 0C914.3 0 868.7 0 823 0C777.3 0 731.7 0 686 0C640.3 0 594.7 0 548.8 0C503 0 457 0 411.2 0C365.3 0 319.7 0 274 0C228.3 0 182.7 0 137 0C91.3 0 45.7 0 22.8 0L0 0Z" fill="#656565"></path><path d="M0 18L22.8 17.5C45.7 17 91.3 16 137 16.7C182.7 17.3 228.3 19.7 274 20.5C319.7 21.3 365.3 20.7 411.2 19.7C457 18.7 503 17.3 548.8 16.5C594.7 15.7 640.3 15.3 686 15.3C731.7 15.3 777.3 15.7 823 16.5C868.7 17.3 914.3 18.7 937.2 19.3L960 20L960 0L937.2 0C914.3 0 868.7 0 823 0C777.3 0 731.7 0 686 0C640.3 0 594.7 0 548.8 0C503 0 457 0 411.2 0C365.3 0 319.7 0 274 0C228.3 0 182.7 0 137 0C91.3 0 45.7 0 22.8 0L0 0Z" fill="#656565"></path><path d="M0 15L22.8 14C45.7 13 91.3 11 137 11C182.7 11 228.3 13 274 13.8C319.7 14.7 365.3 14.3 411.2 14C457 13.7 503 13.3 548.8 12.7C594.7 12 640.3 11 686 11.2C731.7 11.3 777.3 12.7 823 13.2C868.7 13.7 914.3 13.3 937.2 13.2L960 13L960 0L937.2 0C914.3 0 868.7 0 823 0C777.3 0 731.7 0 686 0C640.3 0 594.7 0 548.8 0C503 0 457 0 411.2 0C365.3 0 319.7 0 274 0C228.3 0 182.7 0 137 0C91.3 0 45.7 0 22.8 0L0 0Z" fill="#393939"></path><path d="M0 6L22.8 5.7C45.7 5.3 91.3 4.7 137 5.2C182.7 5.7 228.3 7.3 274 8.2C319.7 9 365.3 9 411.2 8.8C457 8.7 503 8.3 548.8 7.3C594.7 6.3 640.3 4.7 686 4.5C731.7 4.3 777.3 5.7 823 6.2C868.7 6.7 914.3 6.3 937.2 6.2L960 6L960 0L937.2 0C914.3 0 868.7 0 823 0C777.3 0 731.7 0 686 0C640.3 0 594.7 0 548.8 0C503 0 457 0 411.2 0C365.3 0 319.7 0 274 0C228.3 0 182.7 0 137 0C91.3 0 45.7 0 22.8 0L0 0Z" fill="#121212"></path></svg>