<svg id="visual" viewBox="0 0 960 200" width="960" height="200" xmlns="http://www.w3.org/2000/svg" xmlns:xlink="http://www.w3.org/1999/xlink" version="1.1"><rect x="0" y="0" width="960" height="200" fill="#ffffff"></rect><path d="M0 113L22.8 114.2C45.7 115.3 91.3 117.7 137 119.3C182.7 121 228.3 122 274 123.8C319.7 125.7 365.3 128.3 411.2 127C457 125.7 503 120.3 548.8 119.2C594.7 118 640.3 121 686 120.5C731.7 120 777.3 116 823 114.8C868.7 113.7 914.3 115.3 937.2 116.2L960 117L960 201L937.2 201C914.3 201 868.7 201 823 201C777.3 201 731.7 201 686 201C640.3 201 594.7 201 548.8 201C503 201 457 201 411.2 201C365.3 201 319.7 201 274 201C228.3 201 182.7 201 137 201C91.3 201 45.7 201 22.8 201L0 201Z" fill="#ffffff"></path><path d="M0 133L22.8 133.2C45.7 133.3 91.3 133.7 137 134.7C182.7 135.7 228.3 137.3 274 139C319.7 140.7 365.3 142.3 411.2 142C457 141.7 503 139.3 548.8 136.8C594.7 134.3 640.3 131.7 686 132.8C731.7 134 777.3 139 823 141.5C868.7 144 914.3 144 937.2 144L960 144L960 201L937.2 201C914.3 201 868.7 201 823 201C777.3 201 731.7 201 686 201C640.3 201 594.7 201 548.8 201C503 201 457 201 411.2 201C365.3 201 319.7 201 274 201C228.3 201 182.7 201 137 201C91.3 201 45.7 201 22.8 201L0 201Z" fill="#dedede"></path><path d="M0 157L22.8 155C45.7 153 91.3 149 137 148.3C182.7 147.7 228.3 150.3 274 151.3C319.7 152.3 365.3 151.7 411.2 150.5C457 149.3 503 147.7 548.8 146.5C594.7 145.3 640.3 144.7 686 146C731.7 147.3 777.3 150.7 823 150.2C868.7 149.7 914.3 145.3 937.2 143.2L960 141L960 201L937.2 201C914.3 201 868.7 201 823 201C777.3 201 731.7 201 686 201C640.3 201 594.7 201 548.8 201C503 201 457 201 411.2 201C365.3 201 319.7 201 274 201C228.3 201 182.7 201 137 201C91.3 201 45.7 201 22.8 201L0 201Z" fill="#bfbfbf"></path><path d="M0 161L22.8 162.2C45.7 163.3 91.3 165.7 137 164.3C182.7 163 228.3 158 274 156.3C319.7 154.7 365.3 156.3 411.2 158.3C457 160.3 503 162.7 548.8 164.3C594.7 166 640.3 167 686 167C731.7 167 777.3 166 823 164.3C868.7 162.7 914.3 160.3 937.2 159.2L960 158L960 201L937.2 201C914.3 201 868.7 201 823 201C777.3 201 731.7 201 686 201C640.3 201 594.7 201 548.8 201C503 201 457 201 411.2 201C365.3 201 319.7 201 274 201C228.3 201 182.7 201 137 201C91.3 201 45.7 201 22.8 201L0 201Z" fill="#a0a0a0"></path><path d="M0 167L22.8 169C45.7 171 91.3 175 137 175.2C182.7 175.3 228.3 171.7 274 169.8C319.7 168 365.3 168 411.2 168.7C457 169.3 503 170.7 548.8 172.3C594.7 174 640.3 176 686 175.5C731.7 175 777.3 172 823 170.8C868.7 169.7 914.3 170.3 937.2 170.7L960 171L960 201L937.2 201C914.3 201 868.7 201 823 201C777.3 201 731.7 201 686 201C640.3 201 594.7 201 548.8 201C503 201 457 201 411.2 201C365.3 201 319.7 201 274 201C228.3 201 182.7 201 137 201C91.3 201 45.7 201 22.8 201L0 201Z" fill="#828282"></path><path d="M0 185L22.8 185.8C45.7 186.7 91.3 188.3 137 187.2C182.7 186 228.3 182 274 180.3C319.7 178.7 365.3 179.3 411.2 179.7C457 180 503 180 548.8 182C594.7 184 640.3 188 686 188.7C731.7 189.3 777.3 186.7 823 185.7C868.7 184.7 914.3 185.3 937.2 185.7L960 186L960 201L937.2 201C914.3 201 868.7 201 823 201C777.3 201 731.7 201 686 201C640.3 201 594.7 201 548.8 201C503 201 457 201 411.2 201C365.3 201 319.7 201 274 201C228.3 201 182.7 201 137 201C91.3 201 45.7 201 22.8 201L0 201Z" fill="#656565"></path></svg>